<?xml version="1.0" encoding="UTF-8"?>
<svg width="24px" height="23px" viewBox="0 0 24 23" version="1.1" xmlns="http://www.w3.org/2000/svg" xmlns:xlink="http://www.w3.org/1999/xlink">
    <!-- Generator: sketchtool 56.3 (101010) - https://sketch.com -->
    <title>56CEB776-5CCC-458C-800E-BCDF671A05EE</title>
    <desc>Created with sketchtool.</desc>
    <g id="Page-1" stroke="none" stroke-width="1" fill="none" fill-rule="evenodd">
        <g id="Desktop-HD" transform="translate(-410.000000, -1241.000000)">
            <g id="Group-7" transform="translate(286.000000, 710.000000)">
                <g id="Group-2" transform="translate(0.000000, 40.000000)">
                    <g id="Group-3" transform="translate(106.000000, 476.600000)">
                        <g id="Stacked-Group" transform="translate(16.000000, 12.000000)">
                            <g id="SDL-Stockholm-/-Shopping-/-Cart#1">
                                <polygon id="bound" points="0 0 28 0 28 28 0 28"></polygon>
                                <path d="M21.1687417,13.81786 L20.3550225,18.7001755 C20.3540824,18.7058162 20.3531008,18.71145 20.3520778,18.7170763 C20.2368162,19.3510154 19.629469,19.7714865 18.99553,19.6562249 L5.73187751,17.2446516 C5.29483188,17.1651888 4.94083337,16.8444307 4.81879928,16.4173114 L2.68986832,8.96605278 C2.66008783,8.86182107 2.6449796,8.75394742 2.6449796,8.6455448 C2.6449796,8.0012126 3.16731403,7.47887814 3.81164622,7.47887814 L19.8251487,7.47887814 L20.5405346,4.41293866 C20.6859061,3.78991778 21.2413399,3.34916544 21.881096,3.34916544 L24.290095,3.34916544 C25.0503541,3.34916544 25.6666658,3.96547722 25.6666658,4.72573634 C25.6666658,5.48599546 25.0503541,6.10230724 24.290095,6.10230724 L22.9734437,6.10230724 L21.1687417,13.81786 Z" id="Path" fill="#FFFFFF" opacity="0.4"></path>
                                <path d="M7.58333333,24.5 C6.61683502,24.5 5.83333333,23.7164983 5.83333333,22.75 C5.83333333,21.7835017 6.61683502,21 7.58333333,21 C8.54983165,21 9.33333333,21.7835017 9.33333333,22.75 C9.33333333,23.7164983 8.54983165,24.5 7.58333333,24.5 Z M18.0833333,24.5 C17.116835,24.5 16.3333333,23.7164983 16.3333333,22.75 C16.3333333,21.7835017 17.116835,21 18.0833333,21 C19.0498316,21 19.8333333,21.7835017 19.8333333,22.75 C19.8333333,23.7164983 19.0498316,24.5 18.0833333,24.5 Z" id="Shape" fill="#FFFFFF"></path>
                            </g>
                        </g>
                    </g>
                </g>
            </g>
        </g>
    </g>
</svg>